<mxfile host="Electron" agent="Mozilla/5.0 (Windows NT 10.0; Win64; x64) AppleWebKit/537.36 (KHTML, like Gecko) draw.io/28.0.6 Chrome/138.0.7204.100 Electron/37.2.3 Safari/537.36" version="28.0.6">
  <diagram name="第 1 页" id="VnhvsiH4fpKrw7Jrhgmm">
    <mxGraphModel dx="1240" dy="731" grid="1" gridSize="10" guides="1" tooltips="1" connect="1" arrows="1" fold="1" page="1" pageScale="1" pageWidth="827" pageHeight="1169" math="0" shadow="0">
      <root>
        <mxCell id="0" />
        <mxCell id="1" parent="0" />
        <mxCell id="yHJ9qKMx2kqc_VGnC5f_-2" value="playerCharacter" style="rounded=1;whiteSpace=wrap;html=1;labelBackgroundColor=none;fillColor=#BC6C25;strokeColor=#DDA15E;fontColor=#FEFAE0;" vertex="1" parent="1">
          <mxGeometry x="265" y="500" width="120" height="60" as="geometry" />
        </mxCell>
        <mxCell id="yHJ9qKMx2kqc_VGnC5f_-12" value="" style="edgeStyle=orthogonalEdgeStyle;rounded=0;orthogonalLoop=1;jettySize=auto;html=1;labelBackgroundColor=none;strokeColor=#DDA15E;fontColor=default;" edge="1" parent="1" source="yHJ9qKMx2kqc_VGnC5f_-3" target="yHJ9qKMx2kqc_VGnC5f_-2">
          <mxGeometry relative="1" as="geometry" />
        </mxCell>
        <mxCell id="yHJ9qKMx2kqc_VGnC5f_-3" value="Classname" style="swimlane;fontStyle=1;align=center;verticalAlign=top;childLayout=stackLayout;horizontal=1;startSize=26;horizontalStack=0;resizeParent=1;resizeParentMax=0;resizeLast=0;collapsible=1;marginBottom=0;whiteSpace=wrap;html=1;labelBackgroundColor=none;fillColor=#BC6C25;strokeColor=#DDA15E;fontColor=#FEFAE0;" vertex="1" parent="1">
          <mxGeometry x="210" y="610" width="230" height="204" as="geometry" />
        </mxCell>
        <mxCell id="yHJ9qKMx2kqc_VGnC5f_-6" value="+ method(type):&amp;nbsp;&lt;span style=&quot;font-family: &amp;quot;JetBrains Mono&amp;quot;, monospace; font-size: 12pt; background-color: rgb(30, 30, 30); color: rgb(220, 220, 220);&quot;&gt;SetDriveVehicle&lt;/span&gt;" style="text;strokeColor=none;fillColor=none;align=left;verticalAlign=top;spacingLeft=4;spacingRight=4;overflow=hidden;rotatable=0;points=[[0,0.5],[1,0.5]];portConstraint=eastwest;whiteSpace=wrap;html=1;labelBackgroundColor=none;fontColor=#FEFAE0;" vertex="1" parent="yHJ9qKMx2kqc_VGnC5f_-3">
          <mxGeometry y="26" width="230" height="26" as="geometry" />
        </mxCell>
        <mxCell id="yHJ9qKMx2kqc_VGnC5f_-5" value="" style="line;strokeWidth=1;fillColor=none;align=left;verticalAlign=middle;spacingTop=-1;spacingLeft=3;spacingRight=3;rotatable=0;labelPosition=right;points=[];portConstraint=eastwest;strokeColor=#DDA15E;labelBackgroundColor=none;fontColor=#FEFAE0;" vertex="1" parent="yHJ9qKMx2kqc_VGnC5f_-3">
          <mxGeometry y="52" width="230" height="8" as="geometry" />
        </mxCell>
        <mxCell id="yHJ9qKMx2kqc_VGnC5f_-8" value="+ field: type" style="text;strokeColor=none;fillColor=none;align=left;verticalAlign=top;spacingLeft=4;spacingRight=4;overflow=hidden;rotatable=0;points=[[0,0.5],[1,0.5]];portConstraint=eastwest;whiteSpace=wrap;html=1;labelBackgroundColor=none;fontColor=#FEFAE0;" vertex="1" parent="yHJ9qKMx2kqc_VGnC5f_-3">
          <mxGeometry y="60" width="230" height="24" as="geometry" />
        </mxCell>
        <mxCell id="yHJ9qKMx2kqc_VGnC5f_-7" value="+ field: type" style="text;strokeColor=none;fillColor=none;align=left;verticalAlign=top;spacingLeft=4;spacingRight=4;overflow=hidden;rotatable=0;points=[[0,0.5],[1,0.5]];portConstraint=eastwest;whiteSpace=wrap;html=1;labelBackgroundColor=none;fontColor=#FEFAE0;" vertex="1" parent="yHJ9qKMx2kqc_VGnC5f_-3">
          <mxGeometry y="84" width="230" height="24" as="geometry" />
        </mxCell>
        <mxCell id="yHJ9qKMx2kqc_VGnC5f_-4" value="+ field: type" style="text;strokeColor=none;fillColor=none;align=left;verticalAlign=top;spacingLeft=4;spacingRight=4;overflow=hidden;rotatable=0;points=[[0,0.5],[1,0.5]];portConstraint=eastwest;whiteSpace=wrap;html=1;labelBackgroundColor=none;fontColor=#FEFAE0;" vertex="1" parent="yHJ9qKMx2kqc_VGnC5f_-3">
          <mxGeometry y="108" width="230" height="24" as="geometry" />
        </mxCell>
        <mxCell id="yHJ9qKMx2kqc_VGnC5f_-9" value="+ field: type" style="text;strokeColor=none;fillColor=none;align=left;verticalAlign=top;spacingLeft=4;spacingRight=4;overflow=hidden;rotatable=0;points=[[0,0.5],[1,0.5]];portConstraint=eastwest;whiteSpace=wrap;html=1;labelBackgroundColor=none;fontColor=#FEFAE0;" vertex="1" parent="yHJ9qKMx2kqc_VGnC5f_-3">
          <mxGeometry y="132" width="230" height="24" as="geometry" />
        </mxCell>
        <mxCell id="yHJ9qKMx2kqc_VGnC5f_-10" value="+ field: type" style="text;strokeColor=none;fillColor=none;align=left;verticalAlign=top;spacingLeft=4;spacingRight=4;overflow=hidden;rotatable=0;points=[[0,0.5],[1,0.5]];portConstraint=eastwest;whiteSpace=wrap;html=1;labelBackgroundColor=none;fontColor=#FEFAE0;" vertex="1" parent="yHJ9qKMx2kqc_VGnC5f_-3">
          <mxGeometry y="156" width="230" height="24" as="geometry" />
        </mxCell>
        <mxCell id="yHJ9qKMx2kqc_VGnC5f_-11" value="+ field: type" style="text;strokeColor=none;fillColor=none;align=left;verticalAlign=top;spacingLeft=4;spacingRight=4;overflow=hidden;rotatable=0;points=[[0,0.5],[1,0.5]];portConstraint=eastwest;whiteSpace=wrap;html=1;labelBackgroundColor=none;fontColor=#FEFAE0;" vertex="1" parent="yHJ9qKMx2kqc_VGnC5f_-3">
          <mxGeometry y="180" width="230" height="24" as="geometry" />
        </mxCell>
        <mxCell id="yHJ9qKMx2kqc_VGnC5f_-13" value="发现&lt;span style=&quot;font-family: &amp;quot;JetBrains Mono&amp;quot;, monospace; font-size: 12pt; background-color: rgb(30, 30, 30); color: rgb(86, 156, 214);&quot;&gt;void &lt;/span&gt;&lt;span style=&quot;font-family: &amp;quot;JetBrains Mono&amp;quot;, monospace; font-size: 12pt; background-color: rgb(30, 30, 30); color: rgb(255, 215, 0);&quot;&gt;AProjectAirCharacter&lt;/span&gt;&lt;span style=&quot;font-family: &amp;quot;JetBrains Mono&amp;quot;, monospace; font-size: 12pt; background-color: rgb(30, 30, 30); color: rgb(220, 220, 220);&quot;&gt;::&lt;/span&gt;&lt;span style=&quot;font-family: &amp;quot;JetBrains Mono&amp;quot;, monospace; font-size: 12pt; background-color: rgb(30, 30, 30); color: rgb(255, 128, 0);&quot;&gt;SetDriveVehicle&lt;/span&gt;&lt;span style=&quot;font-family: &amp;quot;JetBrains Mono&amp;quot;, monospace; font-size: 12pt; background-color: rgb(30, 30, 30); color: rgb(180, 180, 180);&quot;&gt;(&lt;/span&gt;&lt;span style=&quot;font-family: &amp;quot;JetBrains Mono&amp;quot;, monospace; font-size: 12pt; background-color: rgb(30, 30, 30); color: rgb(255, 215, 0);&quot;&gt;AInteractionBase&lt;/span&gt;&lt;span style=&quot;font-family: &amp;quot;JetBrains Mono&amp;quot;, monospace; font-size: 12pt; background-color: rgb(30, 30, 30); color: rgb(220, 220, 220);&quot;&gt;* &lt;/span&gt;&lt;span style=&quot;font-family: &amp;quot;JetBrains Mono&amp;quot;, monospace; font-size: 12pt; background-color: rgb(30, 30, 30); color: rgb(189, 183, 107);&quot;&gt;NewActor&lt;/span&gt;&lt;span style=&quot;font-family: &amp;quot;JetBrains Mono&amp;quot;, monospace; font-size: 12pt; background-color: rgb(30, 30, 30); color: rgb(180, 180, 180);&quot;&gt;)&lt;/span&gt;&lt;div style=&quot;background-color:#1e1e1e;color:#dcdcdc&quot;&gt;&lt;pre style=&quot;font-family:&#39;JetBrains Mono&#39;,monospace;font-size:12.0pt;&quot;&gt;&lt;span style=&quot;color:#b4b4b4;&quot;&gt;{&lt;br&gt;&lt;/span&gt;&lt;span style=&quot;color:#b4b4b4;&quot;&gt;    &lt;/span&gt;&lt;span style=&quot;color:#bdb76b;&quot;&gt;DriveVehicle &lt;/span&gt;&lt;span style=&quot;color:#ff8000;&quot;&gt;= &lt;/span&gt;&lt;span style=&quot;color:#bdb76b;&quot;&gt;NewActor&lt;/span&gt;&lt;span style=&quot;color:#b4b4b4;&quot;&gt;;&lt;br&gt;&lt;/span&gt;&lt;span style=&quot;color:#b4b4b4;&quot;&gt;}&lt;/span&gt;&lt;/pre&gt;&lt;pre style=&quot;font-family:&#39;JetBrains Mono&#39;,monospace;font-size:12.0pt;&quot;&gt;&lt;span style=&quot;color:#b4b4b4;&quot;&gt;该DriveVehicle已经失效，经过溯源发现是根据gameplayTag进行处理角色状态的&lt;/span&gt;&lt;/pre&gt;&lt;pre style=&quot;font-family:&#39;JetBrains Mono&#39;,monospace;font-size:12.0pt;&quot;&gt;&lt;span style=&quot;color:#b4b4b4;&quot;&gt;然后能够找到管理角色状态的文件StateManagerComponent&lt;/span&gt;&lt;/pre&gt;&lt;/div&gt;" style="rounded=1;whiteSpace=wrap;html=1;strokeColor=#DDA15E;fontColor=#FEFAE0;fillColor=default;verticalAlign=top;gradientColor=none;glass=0;labelBorderColor=none;spacingTop=4;perimeterSpacing=1;" vertex="1" parent="1">
          <mxGeometry x="790" y="420" width="620" height="210" as="geometry" />
        </mxCell>
        <mxCell id="yHJ9qKMx2kqc_VGnC5f_-20" value="" style="edgeStyle=orthogonalEdgeStyle;rounded=0;orthogonalLoop=1;jettySize=auto;html=1;strokeColor=#DDA15E;fontColor=#FEFAE0;fillColor=#BC6C25;" edge="1" parent="1" source="yHJ9qKMx2kqc_VGnC5f_-13" target="yHJ9qKMx2kqc_VGnC5f_-19">
          <mxGeometry relative="1" as="geometry">
            <mxPoint x="1100" y="631" as="sourcePoint" />
            <mxPoint x="1100" y="730" as="targetPoint" />
          </mxGeometry>
        </mxCell>
        <mxCell id="yHJ9qKMx2kqc_VGnC5f_-22" value="" style="edgeStyle=orthogonalEdgeStyle;rounded=0;orthogonalLoop=1;jettySize=auto;html=1;strokeColor=#DDA15E;fontColor=#FEFAE0;fillColor=#BC6C25;" edge="1" parent="1" source="yHJ9qKMx2kqc_VGnC5f_-19" target="yHJ9qKMx2kqc_VGnC5f_-21">
          <mxGeometry relative="1" as="geometry" />
        </mxCell>
        <mxCell id="yHJ9qKMx2kqc_VGnC5f_-19" value="&lt;pre style=&quot;font-family: &amp;quot;JetBrains Mono&amp;quot;, monospace; font-size: 12pt;&quot;&gt;&lt;span&gt;&lt;font style=&quot;color: rgb(0, 0, 0);&quot;&gt;StateManagerComponent是中通过AddConfig对角色状态进行处理，添加的也是GameplayTag&lt;/font&gt;&lt;/span&gt;&lt;/pre&gt;" style="rounded=1;whiteSpace=wrap;html=1;strokeColor=#DDA15E;fontColor=#FEFAE0;fillColor=#E7E4FF;" vertex="1" parent="1">
          <mxGeometry x="650" y="660" width="890" height="50" as="geometry" />
        </mxCell>
        <mxCell id="yHJ9qKMx2kqc_VGnC5f_-21" value="&lt;font&gt;怎么进行添加就是通过&lt;/font&gt;&lt;div style=&quot;background-color: rgb(31, 31, 31); font-family: Consolas, &amp;quot;Courier New&amp;quot;, monospace; font-size: 14px; line-height: 19px; white-space: pre; color: rgb(204, 204, 204);&quot;&gt;&lt;font color=&quot;#cccccc&quot;&gt;&lt;br&gt;&lt;/font&gt;&lt;div style=&quot;color: rgb(204, 204, 204); text-align: left;&quot;&gt;&lt;span style=&quot;color: #c586c0;&quot;&gt;function&lt;/span&gt; &lt;span style=&quot;color: #dcdcaa;&quot;&gt;M&lt;/span&gt;:&lt;span style=&quot;color: #dcdcaa;&quot;&gt;Repair_OnClick&lt;/span&gt;()&lt;/div&gt;&lt;div style=&quot;color: rgb(204, 204, 204); text-align: left;&quot;&gt;&amp;nbsp; &amp;nbsp; &lt;span style=&quot;color: #c586c0;&quot;&gt;local&lt;/span&gt; Pawn &lt;span style=&quot;color: #d4d4d4;&quot;&gt;=&lt;/span&gt; &lt;span style=&quot;color: #569cd6;&quot;&gt;self&lt;/span&gt;:&lt;span style=&quot;color: #dcdcaa;&quot;&gt;GetOwningPlayerPawn&lt;/span&gt;()&lt;/div&gt;&lt;div style=&quot;color: rgb(204, 204, 204); text-align: left;&quot;&gt;&amp;nbsp; &amp;nbsp; &lt;span style=&quot;color: #c586c0;&quot;&gt;if&lt;/span&gt; Pawn &lt;span style=&quot;color: #c586c0;&quot;&gt;then&lt;/span&gt;&lt;/div&gt;&lt;div style=&quot;color: rgb(204, 204, 204); text-align: left;&quot;&gt;&amp;nbsp; &amp;nbsp; &amp;nbsp; &amp;nbsp; &lt;span style=&quot;color: #c586c0;&quot;&gt;local&lt;/span&gt; EventData &lt;span style=&quot;color: #d4d4d4;&quot;&gt;=&lt;/span&gt; UE.&lt;span style=&quot;color: #dcdcaa;&quot;&gt;FGameplayEventData&lt;/span&gt;()&lt;/div&gt;&lt;div style=&quot;color: rgb(204, 204, 204); text-align: left;&quot;&gt;&amp;nbsp; &amp;nbsp; &amp;nbsp; &amp;nbsp; EventData.&lt;span style=&quot;color: #9cdcfe;&quot;&gt;Target&lt;/span&gt; &lt;span style=&quot;color: #d4d4d4;&quot;&gt;=&lt;/span&gt; &lt;span style=&quot;color: #569cd6;&quot;&gt;self&lt;/span&gt;.&lt;span style=&quot;color: #9cdcfe;&quot;&gt;TargetOwner&lt;/span&gt;&lt;/div&gt;&lt;div style=&quot;color: rgb(204, 204, 204); text-align: left;&quot;&gt;&amp;nbsp; &amp;nbsp; &amp;nbsp; &amp;nbsp; Pawn:&lt;span style=&quot;color: #dcdcaa;&quot;&gt;SetGameplayState&lt;/span&gt;(g_State_Character_Repair_Tag,&lt;span style=&quot;color: #569cd6;&quot;&gt;true&lt;/span&gt;,EventData)&lt;/div&gt;&lt;div style=&quot;color: rgb(204, 204, 204); text-align: left;&quot;&gt;&amp;nbsp; &amp;nbsp; &amp;nbsp; &amp;nbsp; &lt;span style=&quot;color: #6a9955;&quot;&gt;-- UE.UAbilitySystemBlueprintLibrary.SendGameplayEventToActor(Pawn ,g_State_Character_Repair_Tag, EventData)&lt;/span&gt;&lt;/div&gt;&lt;div style=&quot;color: rgb(204, 204, 204); text-align: left;&quot;&gt;&amp;nbsp; &amp;nbsp; &lt;span style=&quot;color: #c586c0;&quot;&gt;end&lt;/span&gt;&lt;/div&gt;&lt;div style=&quot;color: rgb(204, 204, 204); text-align: left;&quot;&gt;&lt;span style=&quot;color: #c586c0;&quot;&gt;end&lt;/span&gt;&lt;/div&gt;&lt;div style=&quot;text-align: left;&quot;&gt;&lt;font color=&quot;#c586c0&quot;&gt;这就是修理按钮按下的时候对玩家的状态进行该改变的，同理在其他地方转变状态也是这样实现的。&lt;/font&gt;&lt;/div&gt;&lt;/div&gt;" style="whiteSpace=wrap;html=1;fillColor=light-dark(#E7E4FF, #000000);strokeColor=#DDA15E;fontColor=#FEFAE0;rounded=1;" vertex="1" parent="1">
          <mxGeometry x="600" y="740" width="990" height="356" as="geometry" />
        </mxCell>
        <mxCell id="yHJ9qKMx2kqc_VGnC5f_-23" value="关联文件" style="rounded=0;whiteSpace=wrap;html=1;strokeColor=#DDA15E;fontColor=#FEFAE0;fillColor=#BC6C25;" vertex="1" parent="1">
          <mxGeometry x="1880" y="460" width="120" height="60" as="geometry" />
        </mxCell>
        <mxCell id="yHJ9qKMx2kqc_VGnC5f_-27" value="" style="edgeStyle=orthogonalEdgeStyle;rounded=0;orthogonalLoop=1;jettySize=auto;html=1;strokeColor=#DDA15E;fontColor=#FEFAE0;fillColor=#BC6C25;" edge="1" parent="1" source="yHJ9qKMx2kqc_VGnC5f_-23" target="yHJ9qKMx2kqc_VGnC5f_-26">
          <mxGeometry relative="1" as="geometry">
            <mxPoint x="1850" y="460" as="sourcePoint" />
            <mxPoint x="1970" y="570" as="targetPoint" />
          </mxGeometry>
        </mxCell>
        <mxCell id="yHJ9qKMx2kqc_VGnC5f_-26" value="&lt;div style=&quot;font-size: 12pt;&quot;&gt;&lt;font style=&quot;color: rgb(1, 1, 1);&quot;&gt;StateManagerComponent&lt;/font&gt;&lt;/div&gt;&lt;div style=&quot;font-size: 12pt; color: rgb(220, 220, 220);&quot;&gt;&lt;font style=&quot;color: rgb(1, 1, 1);&quot;&gt;设置相关tag的各个文件&lt;/font&gt;&lt;/div&gt;&lt;div style=&quot;font-size: 12pt; color: rgb(220, 220, 220);&quot;&gt;&lt;font style=&quot;color: rgb(1, 1, 1);&quot;&gt;Mygameplaytags.cpp这是添加Tag的集中地，对tag统一处理&lt;/font&gt;&lt;/div&gt;" style="rounded=1;whiteSpace=wrap;html=1;strokeColor=#DDA15E;fontColor=#FEFAE0;fillColor=#BC6C25;align=left;verticalAlign=top;fontStyle=1;glass=0;shadow=1;fontFamily=Georgia;textOpacity=90;spacingTop=2;spacing=8;spacingLeft=1;spacingBottom=2;" vertex="1" parent="1">
          <mxGeometry x="1720" y="660" width="480" height="200" as="geometry" />
        </mxCell>
        <mxCell id="yHJ9qKMx2kqc_VGnC5f_-28" value="" style="html=1;shadow=0;dashed=0;align=center;verticalAlign=middle;shape=mxgraph.arrows2.arrow;dy=0;dx=10;notch=10;strokeColor=#DDA15E;fontColor=#FEFAE0;fillColor=#BC6C25;" vertex="1" parent="1">
          <mxGeometry x="550" y="1160" width="2280" height="30" as="geometry" />
        </mxCell>
        <mxCell id="yHJ9qKMx2kqc_VGnC5f_-29" value="&lt;div style=&quot;font-size: 12pt;&quot;&gt;&lt;font color=&quot;#010101&quot;&gt;继续找交互相关的逻辑，首先是ItemStorageComponent.lua中，定义了一些全局变量对应的一些Item类型的map,&lt;br&gt;然后通过map中注册的map然后就能够在后面获取函数名，&lt;/font&gt;&lt;/div&gt;&lt;div style=&quot;font-size: 12pt;&quot;&gt;&lt;div style=&quot;color: #cccccc;background-color: #1f1f1f;font-family: Consolas, &#39;Courier New&#39;, monospace;font-weight: normal;font-size: 14px;line-height: 19px;white-space: pre;&quot;&gt;l_GetItemOptFunNames 该函数返回的funcs.check】和funcs.opt就是&lt;/div&gt;&lt;div style=&quot;color: #cccccc;background-color: #1f1f1f;font-family: Consolas, &#39;Courier New&#39;, monospace;font-weight: normal;font-size: 14px;line-height: 19px;white-space: pre;&quot;&gt;返回的函数名，直接查看l_GetItemOptFunNames在代码中调用的位置就知道&lt;/div&gt;&lt;div style=&quot;color: #cccccc;background-color: #1f1f1f;font-family: Consolas, &#39;Courier New&#39;, monospace;font-weight: normal;font-size: 14px;line-height: 19px;white-space: pre;&quot;&gt;哪里调用了其返回的函数了。&lt;/div&gt;&lt;/div&gt;" style="rounded=1;whiteSpace=wrap;html=1;strokeColor=#DDA15E;fontColor=#FEFAE0;fillColor=#BC6C25;align=left;verticalAlign=top;fontStyle=1;glass=0;shadow=1;fontFamily=Georgia;textOpacity=90;spacingTop=2;spacing=8;spacingLeft=1;spacingBottom=2;" vertex="1" parent="1">
          <mxGeometry x="670" y="1310" width="480" height="200" as="geometry" />
        </mxCell>
        <mxCell id="yHJ9qKMx2kqc_VGnC5f_-32" value="" style="edgeStyle=orthogonalEdgeStyle;rounded=0;orthogonalLoop=1;jettySize=auto;html=1;strokeColor=#DDA15E;fontColor=#FEFAE0;fillColor=#BC6C25;" edge="1" parent="1" source="yHJ9qKMx2kqc_VGnC5f_-30" target="yHJ9qKMx2kqc_VGnC5f_-31">
          <mxGeometry relative="1" as="geometry" />
        </mxCell>
        <mxCell id="yHJ9qKMx2kqc_VGnC5f_-30" value="&lt;div style=&quot;color: rgb(204, 204, 204); background-color: rgb(31, 31, 31); font-family: Consolas, &amp;quot;Courier New&amp;quot;, monospace; font-size: 14px; line-height: 19px; white-space: pre;&quot;&gt;&lt;span style=&quot;color: #dcdcaa;&quot;&gt;ClientStartOperateItem&lt;/span&gt;&lt;/div&gt;" style="rounded=1;whiteSpace=wrap;html=1;strokeColor=#DDA15E;fontColor=#FEFAE0;fillColor=#BC6C25;" vertex="1" parent="1">
          <mxGeometry x="1410" y="1440" width="240" height="100" as="geometry" />
        </mxCell>
        <mxCell id="yHJ9qKMx2kqc_VGnC5f_-34" value="" style="edgeStyle=orthogonalEdgeStyle;rounded=0;orthogonalLoop=1;jettySize=auto;html=1;strokeColor=#DDA15E;fontColor=#FEFAE0;fillColor=#BC6C25;" edge="1" parent="1" source="yHJ9qKMx2kqc_VGnC5f_-31" target="yHJ9qKMx2kqc_VGnC5f_-33">
          <mxGeometry relative="1" as="geometry" />
        </mxCell>
        <mxCell id="yHJ9qKMx2kqc_VGnC5f_-37" value="" style="edgeStyle=orthogonalEdgeStyle;rounded=0;orthogonalLoop=1;jettySize=auto;html=1;strokeColor=#DDA15E;fontColor=#FEFAE0;fillColor=#BC6C25;" edge="1" parent="1" source="yHJ9qKMx2kqc_VGnC5f_-33" target="yHJ9qKMx2kqc_VGnC5f_-36">
          <mxGeometry relative="1" as="geometry">
            <Array as="points">
              <mxPoint x="2110" y="1690" />
            </Array>
          </mxGeometry>
        </mxCell>
        <mxCell id="yHJ9qKMx2kqc_VGnC5f_-33" value="server" style="whiteSpace=wrap;html=1;fillColor=#BC6C25;strokeColor=#DDA15E;fontColor=#FEFAE0;rounded=1;" vertex="1" parent="1">
          <mxGeometry x="2068" y="1460" width="120" height="60" as="geometry" />
        </mxCell>
        <mxCell id="yHJ9qKMx2kqc_VGnC5f_-35" value="ItemStorageComponent.lua文件" style="swimlane;startSize=0;strokeColor=#DDA15E;fontColor=light-dark(#FEFAE0, #ffffff);fillColor=#BC6C25;fontSize=23;" vertex="1" parent="1">
          <mxGeometry x="1380" y="1330" width="550" height="460" as="geometry" />
        </mxCell>
        <mxCell id="yHJ9qKMx2kqc_VGnC5f_-31" value="&lt;div style=&quot;color: rgb(204, 204, 204); background-color: rgb(31, 31, 31); font-family: Consolas, &amp;quot;Courier New&amp;quot;, monospace; font-size: 14px; line-height: 19px; white-space: pre;&quot;&gt;&lt;span style=&quot;color: #dcdcaa;&quot;&gt;OperateItem&lt;/span&gt;&lt;/div&gt;" style="whiteSpace=wrap;html=1;fillColor=#BC6C25;strokeColor=#DDA15E;fontColor=#FEFAE0;rounded=1;" vertex="1" parent="yHJ9qKMx2kqc_VGnC5f_-35">
          <mxGeometry x="350" y="130" width="120" height="60" as="geometry" />
        </mxCell>
        <mxCell id="yHJ9qKMx2kqc_VGnC5f_-36" value="&lt;div style=&quot;color: rgb(204, 204, 204); background-color: rgb(31, 31, 31); font-family: Consolas, &amp;quot;Courier New&amp;quot;, monospace; font-size: 14px; line-height: 19px; white-space: pre;&quot;&gt;&lt;span style=&quot;color: #dcdcaa;&quot;&gt;OnServerOperateItem&lt;/span&gt;&lt;/div&gt;" style="whiteSpace=wrap;html=1;fillColor=#BC6C25;strokeColor=#DDA15E;fontColor=#FEFAE0;rounded=1;" vertex="1" parent="yHJ9qKMx2kqc_VGnC5f_-35">
          <mxGeometry x="320" y="330" width="160" height="70" as="geometry" />
        </mxCell>
        <mxCell id="yHJ9qKMx2kqc_VGnC5f_-38" value="&lt;div style=&quot;line-height: 180%;&quot;&gt;但是该函数是通过Content\Script\ServerNetWork\TCPNetWork_DS.lua中的&lt;span style=&quot;color: rgb(220, 220, 170); background-color: rgb(31, 31, 31); font-family: Consolas, &amp;quot;Courier New&amp;quot;, monospace; font-size: 14px; white-space: pre;&quot;&gt;OnServerGameServerOptItemReq触发的&lt;/span&gt;&lt;div&gt;&lt;/div&gt;&lt;/div&gt;&lt;div style=&quot;line-height: 180%;&quot;&gt;&lt;span style=&quot;color: rgb(220, 220, 170); background-color: rgb(31, 31, 31); font-family: Consolas, &amp;quot;Courier New&amp;quot;, monospace; font-size: 14px; white-space: pre;&quot;&gt;&lt;br&gt;&lt;/span&gt;&lt;/div&gt;&lt;div style=&quot;line-height: 180%;&quot;&gt;&lt;span style=&quot;color: rgb(220, 220, 170); background-color: rgb(31, 31, 31); font-family: Consolas, &amp;quot;Courier New&amp;quot;, monospace; font-size: 14px; white-space: pre;&quot;&gt;该函数是在上面注册了handle的，&lt;/span&gt;&lt;span style=&quot;color: rgb(220, 220, 170); background-color: rgb(31, 31, 31); font-family: Consolas, &amp;quot;Courier New&amp;quot;, monospace; font-size: 14px; white-space: pre;&quot;&gt;RegisterMsgHandle，我要去C++中看&lt;/span&gt;&lt;/div&gt;&lt;div style=&quot;line-height: 180%;&quot;&gt;&lt;span style=&quot;color: rgb(220, 220, 170); background-color: rgb(31, 31, 31); font-family: Consolas, &amp;quot;Courier New&amp;quot;, monospace; font-size: 14px; white-space: pre;&quot;&gt;TCPNetWork_DS中对应的函数了&lt;/span&gt;&lt;/div&gt;" style="shape=document;whiteSpace=wrap;html=1;boundedLbl=1;fillColor=#F2CC8F;strokeColor=#E07A5F;fontColor=#393C56;rounded=1;labelBackgroundColor=none;align=left;" vertex="1" parent="1">
          <mxGeometry x="1620" y="1920" width="370" height="240" as="geometry" />
        </mxCell>
        <mxCell id="yHJ9qKMx2kqc_VGnC5f_-39" style="edgeStyle=orthogonalEdgeStyle;rounded=0;orthogonalLoop=1;jettySize=auto;html=1;strokeColor=#DDA15E;fontColor=#FEFAE0;fillColor=#BC6C25;" edge="1" parent="1" source="yHJ9qKMx2kqc_VGnC5f_-36" target="yHJ9qKMx2kqc_VGnC5f_-38">
          <mxGeometry relative="1" as="geometry" />
        </mxCell>
      </root>
    </mxGraphModel>
  </diagram>
</mxfile>
